<svg width="16" height="16" viewBox="0 0 16 16" fill="none" xmlns="http://www.w3.org/2000/svg">
<path fill-rule="evenodd" clip-rule="evenodd" d="M10.4707 9.87919H11.1291L15.2874 14.0459L14.0457 15.2875L9.87907 11.1292V10.4709L9.65407 10.2375C8.70407 11.0542 7.47074 11.5459 6.12907 11.5459C3.1374 11.5459 0.712402 9.12086 0.712402 6.12919C0.712402 3.13752 3.1374 0.712524 6.12907 0.712524C9.12074 0.712524 11.5457 3.13752 11.5457 6.12919C11.5457 7.47086 11.0541 8.70419 10.2374 9.65419L10.4707 9.87919ZM2.37915 6.12927C2.37915 8.20427 4.05415 9.87927 6.12915 9.87927C8.20415 9.87927 9.87915 8.20427 9.87915 6.12927C9.87915 4.05427 8.20415 2.37927 6.12915 2.37927C4.05415 2.37927 2.37915 4.05427 2.37915 6.12927Z" fill="#8A8A8A"/>
</svg>
